<?xml version="1.0" standalone="no"?>
<!DOCTYPE svg PUBLIC "-//W3C//DTD SVG 20010904//EN"
 "http://www.w3.org/TR/2001/REC-SVG-20010904/DTD/svg10.dtd">
<svg version="1.0" xmlns="http://www.w3.org/2000/svg"
 width="249.000000pt" height="256.000000pt" viewBox="0 0 249.000000 256.000000"
 preserveAspectRatio="xMidYMid meet">

<g transform="translate(0.000000,256.000000) scale(0.100000,-0.100000)"
fill="#000000" stroke="none">
<path d="M269 2545 c-71 -26 -116 -54 -161 -102 -50 -55 -72 -91 -83 -140 -3
-18 -11 -35 -16 -38 -5 -4 -9 -394 -9 -975 l0 -968 30 -67 c20 -44 49 -86 88
-125 104 -104 0 -95 1107 -98 947 -2 970 -2 1028 18 78 26 116 56 174 138 l48
67 0 1025 0 1025 -22 48 c-33 71 -117 149 -197 181 l-66 26 -943 -1 c-750 0
-949 -3 -978 -14z m1921 -315 c35 -35 16 -110 -29 -110 -13 0 -14 2 -2 9 11 7
6 17 -25 45 l-39 36 -6 -33 -6 -32 -2 34 c0 20 6 42 16 53 21 24 68 23 93 -2z
m-727 -503 c5 -12 -174 -532 -188 -545 -4 -4 -4 10 0 31 6 30 4 37 -9 37 -9 0
-20 10 -25 22 -7 19 -13 10 -38 -57 -17 -44 -34 -90 -38 -103 -4 -13 -9 -22
-11 -19 -3 3 180 548 211 630 9 21 90 25 98 4z m-585 -228 l3 -47 -113 -82
c-62 -46 -129 -94 -148 -108 l-35 -24 35 31 c19 18 51 42 70 55 45 30 64 52
55 66 -4 7 -18 9 -31 6 -15 -4 -26 -1 -31 9 -7 12 -16 8 -49 -18 -23 -18 -62
-46 -87 -64 -42 -29 -46 -36 -50 -80 l-3 -48 -2 52 -2 52 173 126 c109 79 179
125 192 123 16 -2 21 -12 23 -49z m926 -55 c171 -124 206 -155 206 -181 -1
-13 -4 -10 -13 10 -7 15 -37 44 -67 65 -30 20 -81 57 -112 80 -34 26 -62 41
-69 36 -7 -4 -9 -3 -6 3 3 5 -7 20 -23 31 -30 23 -45 28 -36 14 3 -5 -8 -6
-25 -4 -22 3 -29 0 -29 -12 0 -9 -1 -19 -2 -23 -1 -5 14 -19 34 -33 83 -59
188 -141 188 -146 0 -4 -6 -2 -12 3 -7 6 -58 43 -113 84 -55 40 -103 78 -107
83 -10 14 -10 80 -1 89 17 18 51 -1 187 -99z m-1046 -318 c92 -67 122 -95 121
-110 -2 -20 -2 -20 -6 -1 -2 11 -26 36 -54 55 -81 57 -193 141 -204 152 -20
21 23 -8 143 -96z m1122 100 c0 -2 -46 -37 -101 -78 -145 -104 -157 -116 -162
-146 -4 -26 -4 -26 -5 -2 -1 14 2 30 6 36 6 10 252 194 260 194 1 0 2 -2 2 -4z
m-619 -87 c-5 -13 -10 -19 -10 -12 -1 15 10 45 15 40 3 -2 0 -15 -5 -28z
m-680 -6 c13 -16 12 -17 -3 -4 -10 7 -18 15 -18 17 0 8 8 3 21 -13z m40 -30
c13 -16 12 -17 -3 -4 -10 7 -18 15 -18 17 0 8 8 3 21 -13z m613 -47 c-9 -26
-18 -45 -20 -43 -2 2 3 25 12 51 9 26 18 45 20 43 2 -2 -3 -25 -12 -51z m-573
17 c13 -16 12 -17 -3 -4 -17 13 -22 21 -14 21 2 0 10 -8 17 -17z m468 -62
c-12 -34 -23 -60 -25 -58 -2 2 6 32 17 66 12 34 23 60 25 58 2 -2 -6 -32 -17
-66z"/>
<path d="M2156 2208 c3 -13 13 -26 20 -31 7 -4 11 -15 8 -25 -5 -14 -4 -15 5
-2 23 32 6 80 -27 80 -9 0 -11 -7 -6 -22z"/>
<path d="M1251 1344 c0 -11 3 -14 6 -6 3 7 2 16 -1 19 -3 4 -6 -2 -5 -13z"/>
<path d="M750 1472 l-33 -28 34 4 c24 2 39 -1 48 -12 10 -12 17 -13 35 -4 37
20 36 31 -6 50 -22 10 -41 18 -42 18 -1 0 -17 -13 -36 -28z"/>
<path d="M1630 1525 c0 -8 2 -15 4 -15 2 0 6 7 10 15 3 8 1 15 -4 15 -6 0 -10
-7 -10 -15z"/>
</g>
</svg>
